<svg xmlns="http://www.w3.org/2000/svg" viewBox="0 0 32 32" width="32" height="32"><g><circle cx="16" cy="16" r="16" fill="#fff"/><path d="M22.5 16c0-3.59-2.91-6.5-6.5-6.5S9.5 12.41 9.5 16c0 3.59 2.91 6.5 6.5 6.5s6.5-2.91 6.5-6.5zm-6.5 5.5c-3.03 0-5.5-2.47-5.5-5.5s2.47-5.5 5.5-5.5 5.5 2.47 5.5 5.5-2.47 5.5-5.5 5.5zm0-10c-2.48 0-4.5 2.02-4.5 4.5s2.02 4.5 4.5 4.5 4.5-2.02 4.5-4.5-2.02-4.5-4.5-4.5zm0 8c-1.93 0-3.5-1.57-3.5-3.5s1.57-3.5 3.5-3.5 3.5 1.57 3.5 3.5-1.57 3.5-3.5 3.5z" fill="#000"/></g></svg>