<svg xmlns="http://www.w3.org/2000/svg" viewBox="0 0 32 32" width="32" height="32"><g><circle cx="16" cy="16" r="16" fill="#fff"/><path d="M22.5 12.5c-.5.5-1.5 1-2.5 1-1 0-2-.5-2.5-1-.5-.5-1.5-1-2.5-1s-2 .5-2.5 1c-.5.5-1.5 1-2.5 1s-2-.5-2.5-1c-.5-.5-1.5-1-2.5-1s-2 .5-2.5 1c-.5.5-1.5 1-2.5 1s-2-.5-2.5-1c-.5-.5-1.5-1-2.5-1s-2 .5-2.5 1c-.5.5-1.5 1-2.5 1s-2-.5-2.5-1c-.5-.5-1.5-1-2.5-1s-2 .5-2.5 1c-.5.5-1.5 1-2.5 1s-2-.5-2.5-1c-.5-.5-1.5-1-2.5-1s-2 .5-2.5 1c-.5.5-1.5 1-2.5 1s-2-.5-2.5-1c-.5-.5-1.5-1-2.5-1s-2 .5-2.5 1c-.5.5-1.5 1-2.5 1s-2-.5-2.5-1c-.5-.5-1.5-1-2.5-1s-2 .5-2.5 1c-.5.5-1.5 1-2.5 1s-2-.5-2.5-1c-.5-.5-1.5-1-2.5-1s-2 .5-2.5 1c-.5.5-1.5 1-2.5 1s-2-.5-2.5-1c-.5-.5-1.5-1-2.5-1s-2 .5-2.5 1c-.5.5-1.5 1-2.5 1s-2-.5-2.5-1c-.5-.5-1.5-1-2.5-1s-2 .5-2.5 1c-.5.5-1.5 1-2.5 1s-2-.5-2.5-1c-.5-.5-1.5-1-2.5-1s-2 .5-2.5 1c-.5.5-1.5 1-2.5 1s-2-.5-2.5-1c-.5-.5-1.5-1-2.5-1s-2 .5-2.5 1c-.5.5-1.5 1-2.5 1s-2-.5-2.5-1c-.5-.5-1.5-1-2.5-1s-2 .5-2.5 1c-.5.5-1.5 1-2.5 1s-2-.5-2.5-1c-.5-.5-1.5-1-2.5-1s-2 .5-2.5 1c-.5.5-1.5 1-2.5 1s-2-.5-2.5-1c-.5-.5-1.5-1-2.5-1s-2 .5-2.5 1c-.5.5-1.5 1-2.5 1s-2-.5-2.5-1c-.5-.5-1.5-1-2.5-1s-2 .5-2.5 1c-.5.5-1.5 1-2.5 1s-2-.5-2.5-1c-.5-.5-1.5-1-2.5-1s-2 .5-2.5 1c-.5.5-1.5 1-2.5 1s-2-.5-2.5-1c-.5-.5-1.5-1-2.5-1s-2 .5-2.5 1c-.5.5-1.5 1-2.5 1s-2-.5-2.5-1c-.5-.5-1.5-1-2.5-1s-2 .5-2.5 1c-.5.5-1.5 1-2.5 1s-2-.5-2.5-1c-.5-.5-1.5-1-2.5-1s-2 .5-2.5 1c-.5.5-1.5 1-2.5 1s-2-.5-2.5-1c-.5-.5-1.5-1-2.5-1s-2 .5-2.5 1c-.5.5-1.5 1-2.5 1s-2-.5-2.5-1c-.5-.5-1.5-1-2.5-1z" fill="#000"/><path d="M16 22c-3.31 0-6-2.69-6-6s2.69-6 6-6 6 2.69 6 6-2.69 6-6 6zm0-10c-2.21 0-4 1.79-4 4s1.79 4 4 4 4-1.79 4-4-1.79-4-4-4z" fill="#1877F3"/></g></svg>