<svg xmlns="http://www.w3.org/2000/svg" viewBox="0 0 32 32" width="32" height="32"><g><circle cx="16" cy="16" r="16" fill="#fff"/><path d="M16.318 13.714v2.572h7.286c-.295 1.857-2.196 5.429-7.286 5.429-4.286 0-7.857-3.571-7.857-7.857s3.571-7.857 7.857-7.857c2.429 0 4.036.964 4.964 1.786l2.143-2.143C21.036 5.857 18.857 4.857 16.318 4.857c-6.429 0-11.643 5.214-11.643 11.643s5.214 11.643 11.643 11.643c6.429 0 10.679-4.571 10.679-11.036 0-.714-.071-1.25-.179-1.786h-10.5z" fill="#4285F4"/><path d="M16.318 27.143c4.857 0 8.929-3.214 10.286-7.607l-7.5-5.893c-1.071.714-2.5 1.143-4.071 1.143-3.214 0-5.893-2.143-6.857-5.071l-7.5 5.893C7.393 23.929 11.464 27.143 16.318 27.143z" fill="#34A853"/><path d="M5.393 10.571l7.5 5.893c.857-2.5 3.036-4.286 5.429-4.286 1.071 0 2.036.357 2.857.929l7.5-5.893C25.25 7.036 21.179 4.857 16.318 4.857c-4.857 0-8.929 3.214-10.925 7.714z" fill="#FBBC05"/><path d="M27.036 16.143c0-.714-.071-1.25-.179-1.786H16.318v3.571h6.393c-.286 1.143-1.143 2.5-2.5 3.286l7.5 5.893c2.143-2.143 3.393-5.286 3.393-8.964z" fill="#EA4335"/></g></svg>